<?xml version="1.0" standalone="no"?>
<!DOCTYPE svg PUBLIC "-//W3C//DTD SVG 20010904//EN"
 "http://www.w3.org/TR/2001/REC-SVG-20010904/DTD/svg10.dtd">
<svg version="1.0" xmlns="http://www.w3.org/2000/svg"
 width="300.000000pt" height="300.000000pt" viewBox="0 0 300.000000 300.000000"
 preserveAspectRatio="xMidYMid meet">
<metadata>
Created by potrace 1.10, written by Peter Selinger 2001-2011
</metadata>
<g transform="translate(0.000000,300.000000) scale(0.100000,-0.100000)"
fill="#000000" stroke="none">
<path d="M1375 2859 c-233 -33 -459 -150 -621 -320 -129 -137 -224 -322 -224
-441 0 -51 17 -48 30 5 62 239 187 417 388 551 354 235 803 230 1163 -15 86
-58 141 -110 211 -197 61 -78 138 -224 160 -304 14 -54 28 -63 28 -19 0 76
-59 211 -140 321 -150 202 -372 343 -640 406 -77 18 -270 25 -355 13z"/>
<path d="M1795 2626 c-5 -2 -54 -14 -108 -26 -54 -12 -96 -24 -94 -27 3 -2 63
5 134 17 133 23 247 23 338 -1 58 -15 206 -174 287 -309 15 -26 6 -19 -34 25
-59 64 -178 170 -163 145 23 -39 190 -210 205 -210 11 0 25 -18 38 -50 12 -27
18 -50 14 -50 -4 0 -33 31 -63 68 -126 154 -350 275 -592 319 -111 20 -353 22
-447 4 -170 -32 -337 -98 -471 -187 -104 -69 -279 -256 -279 -299 0 -7 7 -15
15 -18 9 -4 31 16 63 56 203 254 528 407 865 407 259 0 462 -58 667 -191 73
-48 280 -250 280 -274 0 -10 -18 2 -47 32 -191 195 -447 324 -728 368 -212 34
-463 -6 -673 -106 -147 -71 -346 -228 -428 -340 l-36 -49 -20 25 c-27 34 -61
32 -104 -7 -52 -49 -64 -103 -61 -262 4 -141 12 -169 61 -216 19 -17 38 -24
66 -25 44 0 43 1 75 -105 10 -30 35 -89 57 -130 33 -62 38 -78 29 -97 -16 -35
-13 -94 5 -128 50 -91 49 -81 10 -126 -41 -48 -61 -99 -52 -134 11 -44 182
-154 327 -210 91 -36 203 -66 292 -79 78 -11 94 -21 64 -40 -12 -8 -21 -5 -37
9 -18 16 -24 17 -41 7 -14 -9 -25 -9 -39 -2 -24 13 -76 13 -101 0 -13 -8 -25
-7 -40 0 -16 9 -26 8 -45 -5 -23 -15 -27 -15 -54 2 -24 14 -36 15 -58 7 -20
-8 -33 -8 -45 0 -13 9 -22 5 -42 -15 -23 -23 -26 -33 -26 -103 -1 -105 10
-117 100 -110 95 7 169 4 232 -10 26 -6 45 -3 67 8 28 14 34 14 76 -1 40 -15
51 -16 79 -4 17 7 40 13 50 12 16 -2 59 -2 90 -2 6 0 36 -2 66 -5 35 -4 62 -2
78 7 18 10 29 10 42 2 22 -14 131 -14 148 -1 7 6 21 7 30 2 17 -7 80 -13 175
-17 25 -1 48 7 68 21 l30 22 20 -20 c43 -43 100 -7 100 64 0 25 8 51 20 66 48
61 8 93 -112 89 -48 -2 -93 -8 -106 -16 -19 -12 -27 -11 -52 4 -29 16 -30 16
-53 -5 l-24 -22 -25 20 c-33 25 -63 25 -96 0 l-26 -21 -20 20 c-11 11 -18 22
-15 25 2 2 58 13 124 25 66 11 170 36 230 56 184 59 395 186 395 238 0 29 -32
88 -65 121 -31 31 -31 46 0 96 34 54 42 112 21 145 -17 25 -16 28 12 73 29 47
68 139 93 221 13 40 17 44 51 47 44 4 80 25 105 62 15 22 19 52 21 166 5 186
0 217 -47 266 -45 47 -74 51 -112 14 l-26 -25 -24 38 c-12 21 -21 43 -19 48 1
6 2 20 2 33 -1 13 4 22 12 22 11 0 9 14 -11 62 -64 160 -112 228 -254 369
-115 114 -134 122 -284 126 -66 1 -124 1 -130 -1z m-135 -236 c119 -19 290
-72 378 -117 104 -53 165 -95 290 -193 70 -56 91 -78 85 -90 -4 -8 -7 -53 -6
-99 2 -76 1 -82 -12 -65 -10 12 -13 14 -11 4 3 -8 7 -60 10 -115 11 -178 -21
-330 -97 -469 -19 -34 -34 -65 -35 -69 -1 -20 -86 -108 -154 -159 -179 -136
-368 -198 -599 -198 -201 0 -363 48 -528 158 -49 33 -191 167 -191 181 0 3 9
17 20 31 18 24 20 25 47 8 15 -9 40 -36 54 -60 32 -53 57 -56 80 -9 9 19 35
51 58 70 47 40 47 57 1 84 -16 10 -39 36 -52 60 -32 57 -52 58 -84 5 -15 -24
-44 -54 -65 -66 -36 -21 -39 -21 -47 -5 -20 37 -62 186 -68 240 -7 52 -6 55
12 46 10 -6 40 -13 65 -16 41 -6 49 -3 73 21 20 22 26 38 26 73 0 24 -7 53
-15 63 -17 22 -19 37 -6 33 22 -6 72 48 119 131 54 93 59 110 42 142 -9 17 -7
19 22 18 18 -1 48 7 66 16 l32 17 -20 -33 c-25 -42 -25 -59 0 -86 37 -40 43
-36 176 110 53 58 129 118 149 118 6 0 18 -11 25 -24 16 -32 36 -39 61 -23 33
20 33 45 1 81 l-29 34 -71 -38 c-93 -48 -150 -96 -219 -181 -31 -38 -61 -68
-67 -66 -26 9 -13 38 47 99 72 74 154 132 242 172 41 19 56 30 46 35 -11 7
-10 14 5 36 15 22 16 32 6 59 -7 18 -12 35 -12 39 0 10 75 8 150 -3z m-176
-36 c14 -36 6 -49 -41 -66 -72 -26 -189 -98 -270 -167 -40 -34 -79 -61 -87
-61 -20 0 -117 111 -114 130 8 43 189 125 349 159 118 25 155 26 163 5z m-536
-141 c-9 -25 -9 -38 0 -59 14 -30 8 -44 -10 -26 -29 29 -75 6 -125 -63 -19
-27 -24 -29 -42 -17 -12 6 -28 12 -36 12 -28 0 -15 20 53 76 61 51 162 117
169 110 1 -1 -3 -16 -9 -33z m609 -57 c-4 -9 -11 -16 -17 -16 -17 0 -24 31 -9
41 18 11 34 -5 26 -25z m-595 -103 c32 -32 58 -65 58 -74 0 -15 -86 -168 -110
-196 -15 -18 -22 -17 -76 20 -45 30 -49 35 -48 72 1 58 86 235 113 235 3 0 31
-26 63 -57z m-207 -40 c-105 -249 -96 -530 22 -766 29 -59 24 -71 -10 -25
-100 133 -148 333 -128 533 14 136 47 254 75 265 35 14 49 12 41 -7z m1726
-151 c73 -281 -13 -608 -214 -816 -306 -316 -808 -405 -1195 -213 -118 59
-172 96 -261 181 -119 115 -198 249 -242 411 -32 118 -33 338 -1 450 39 136
61 148 36 19 -63 -327 8 -606 209 -820 118 -126 279 -222 447 -265 129 -33
325 -37 456 -10 373 77 657 338 730 672 20 93 20 284 0 399 -9 47 -16 94 -15
105 0 35 28 -28 50 -113z m-1989 -55 c-2 -111 -6 -146 -15 -141 -8 5 -8 3 1
-7 6 -7 12 -20 12 -29 -1 -22 -59 50 -60 74 0 16 2 16 21 -5 l20 -24 -16 27
c-16 26 -16 28 -1 34 16 6 16 8 0 25 -9 11 -20 19 -23 19 -3 0 -7 -26 -8 -57
-3 -55 -1 -59 40 -103 40 -41 54 -70 35 -70 -5 0 -13 0 -19 0 -6 0 -10 10 -7
23 2 14 -6 33 -24 52 l-28 30 0 -43 c0 -59 24 -101 60 -109 17 -3 30 -12 30
-19 0 -36 -83 6 -105 53 -25 52 -19 316 8 356 14 22 80 73 82 64 0 -1 -1 -68
-3 -150z m2137 92 c14 -23 19 -60 24 -169 7 -156 -1 -201 -43 -231 -38 -27
-70 -34 -70 -15 0 9 7 16 15 16 9 0 27 11 40 25 22 21 25 33 25 94 l0 71 -34
-38 -34 -37 -1 173 -1 173 30 -16 c17 -9 39 -29 49 -46z m-1855 -98 c17 -19
14 -47 -4 -36 -5 3 -11 1 -15 -5 -13 -21 -25 -9 -25 25 0 40 17 46 44 16z m56
-96 l50 -25 -6 -43 c-4 -23 -10 -46 -15 -51 -4 -5 -28 -5 -56 0 l-48 9 -3 54
c-5 90 1 95 78 56z m134 -368 c9 -48 32 -75 71 -83 42 -8 46 -24 7 -24 -37 0
-71 -37 -79 -84 -7 -44 -17 -47 -20 -5 -3 43 -28 77 -61 85 -52 11 -58 17 -27
24 65 15 91 46 87 103 -2 30 16 18 22 -16z m-252 -295 c13 -18 62 -66 109
-105 280 -232 616 -302 1004 -208 40 10 61 7 31 -5 -9 -3 -47 -14 -84 -24 -63
-17 -64 -18 -27 -19 82 -2 255 46 360 99 113 57 195 113 195 134 0 9 -28 -4
-74 -35 -75 -50 -266 -135 -266 -118 0 5 26 22 58 38 123 63 301 208 337 275
26 48 37 46 29 -6 -8 -49 -25 -88 -48 -107 -10 -8 -16 -29 -16 -52 0 -47 -28
-71 -151 -128 -200 -94 -327 -121 -599 -128 -226 -6 -346 7 -510 53 -100 29
-273 111 -314 149 -22 21 -27 32 -23 55 4 19 1 32 -10 42 -24 20 -53 89 -52
128 0 39 -4 42 51 -38z m1708 -302 c0 -13 -164 -113 -252 -155 -188 -89 -379
-125 -660 -125 -322 0 -543 56 -764 193 -124 77 -123 75 -88 142 31 60 39 65
47 36 6 -26 101 -86 209 -133 175 -76 356 -108 603 -108 190 0 322 17 475 61
173 50 360 149 360 191 1 17 10 7 35 -37 19 -33 35 -62 35 -65z m-480 21 c0
-10 -24 -21 -48 -21 -13 0 -12 3 4 15 21 16 44 19 44 6z m-280 -350 c0 -19
-22 -23 -38 -7 -15 15 -14 16 11 16 15 0 27 -4 27 -9z m-825 -121 c2 -78 1
-80 -21 -80 -23 0 -24 3 -24 78 0 47 5 83 12 90 21 21 31 -4 33 -88z m75 90
c10 -6 32 -33 47 -60 l28 -50 5 57 c4 43 9 58 20 58 12 0 16 -18 18 -87 3 -81
1 -88 -16 -88 -22 0 -39 18 -75 80 l-27 45 0 -62 c0 -56 -2 -63 -20 -63 -18 0
-20 7 -20 83 0 98 4 106 40 87z m244 4 c20 -8 21 -44 2 -44 -8 0 -17 4 -21 10
-7 11 -35 2 -35 -11 0 -5 16 -17 35 -26 43 -21 55 -55 30 -83 -30 -33 -105
-24 -105 12 0 15 4 18 18 13 58 -25 78 5 22 33 -44 22 -53 62 -18 86 24 17 46
20 72 10z m91 -16 c2 -13 6 -45 7 -73 3 -46 5 -50 28 -50 24 0 25 3 30 70 4
53 9 70 20 70 12 0 16 -16 18 -69 4 -83 -11 -106 -69 -106 -56 0 -69 19 -69
99 0 37 3 71 7 74 12 13 23 7 28 -15z m251 1 c18 -15 18 -53 -1 -69 -12 -10
-12 -14 4 -32 11 -11 21 -28 24 -39 7 -26 -39 -27 -48 0 -3 10 -14 26 -25 36
-20 18 -20 17 -20 -18 0 -30 -4 -37 -20 -37 -18 0 -20 7 -20 84 0 58 4 86 13
90 18 8 77 -1 93 -15z m88 15 c9 -3 30 -31 48 -63 l33 -56 3 50 c3 66 9 82 24
67 15 -15 14 -165 -2 -170 -16 -6 -49 27 -71 70 -29 57 -38 54 -32 -12 5 -56
4 -60 -16 -60 -20 0 -21 5 -21 90 0 89 3 96 34 84z m250 -9 c14 -14 56 -132
56 -156 0 -5 -11 -9 -25 -9 -18 0 -25 5 -25 20 0 16 -7 20 -35 20 -28 0 -35
-4 -35 -20 0 -13 -7 -20 -20 -20 -25 0 -25 3 0 83 28 90 52 113 84 82z m118
-59 c2 -42 8 -62 20 -69 30 -19 48 8 48 74 0 57 14 84 31 58 15 -24 10 -123
-7 -147 -19 -27 -94 -31 -115 -6 -18 22 -25 130 -9 149 20 24 29 7 32 -59z
m269 57 c10 -10 6 -14 -19 -19 l-32 -6 0 -69 c0 -62 -2 -69 -20 -69 -18 0 -20
7 -20 70 0 63 -2 70 -19 70 -22 0 -35 15 -27 29 8 13 123 8 137 -6z"/>
<path d="M1950 2198 c-11 -18 -20 -36 -20 -40 0 -3 -21 -18 -46 -33 -54 -32
-54 -49 0 -85 21 -15 45 -40 54 -56 8 -16 21 -37 30 -46 19 -22 35 -11 63 44
10 21 32 44 47 52 61 32 64 62 7 89 -21 10 -42 32 -54 55 -17 33 -37 52 -57
52 -2 0 -13 -15 -24 -32z m44 -21 c10 -51 33 -76 77 -83 46 -8 52 -24 9 -24
-38 0 -80 -39 -80 -74 0 -33 -10 -57 -21 -50 -5 3 -7 10 -3 15 9 16 -16 78
-39 94 -12 8 -34 15 -49 15 -16 0 -28 5 -28 10 0 6 9 10 20 10 55 0 96 46 92
103 -2 30 16 18 22 -16z"/>
<path d="M1383 2034 c-29 -30 -53 -59 -53 -65 0 -10 100 -119 110 -119 3 0 30
27 59 61 l53 60 -41 40 c-22 22 -41 44 -41 49 0 5 -8 13 -17 19 -14 7 -29 -2
-70 -45z m65 11 c0 -33 29 -65 59 -65 12 0 23 -4 23 -10 0 -5 -11 -10 -23 -10
-29 0 -52 -24 -62 -65 l-8 -30 -9 35 c-11 41 -32 60 -66 60 -13 0 -20 4 -17
10 3 6 17 10 30 10 27 0 55 34 55 67 0 13 4 23 9 23 5 0 9 -11 9 -25z"/>
<path d="M1665 2015 c-31 -30 -31 -36 1 -69 33 -33 47 -33 73 0 27 34 26 46
-2 72 -30 28 -42 28 -72 -3z m63 -25 c16 -1 16 -2 0 -14 -10 -7 -18 -19 -18
-27 -1 -10 -4 -9 -14 4 -7 9 -18 17 -25 17 -6 0 -11 5 -11 10 0 6 6 10 14 10
8 0 17 8 21 18 8 16 8 16 12 0 3 -10 12 -18 21 -18z"/>
<path d="M2167 2005 c-15 -14 -27 -34 -27 -44 0 -16 29 -49 57 -65 16 -9 73
41 73 64 0 20 -47 70 -65 70 -6 0 -23 -11 -38 -25z m74 -36 l24 -6 -27 -11
c-16 -6 -28 -19 -29 -29 0 -14 -2 -13 -9 5 -5 12 -16 22 -25 22 -8 0 -15 5
-15 10 0 6 6 10 14 10 8 0 18 10 22 23 7 21 7 21 14 2 4 -11 18 -22 31 -26z"/>
<path d="M1105 1883 c-33 -9 -101 -60 -120 -90 -69 -104 -32 -258 73 -312 198
-100 400 101 294 294 -38 70 -96 108 -169 111 -32 2 -67 0 -78 -3z m170 -67
c67 -51 91 -138 60 -214 -32 -76 -86 -112 -167 -112 -70 0 -116 25 -152 84
-55 88 -30 198 56 251 37 22 52 25 104 23 49 -3 69 -10 99 -32z"/>
<path d="M1157 1802 c-11 -2 -16 -9 -13 -18 3 -8 -1 -14 -9 -14 -21 0 -55 -37
-55 -60 0 -27 37 -58 82 -71 44 -11 50 -36 11 -45 -20 -5 -30 -2 -44 15 -15
19 -22 20 -39 11 -27 -14 -22 -30 18 -55 17 -11 31 -26 32 -32 0 -18 40 -16
40 1 0 8 9 18 20 21 29 9 53 50 46 79 -6 23 -58 56 -89 56 -24 0 -31 20 -14
38 14 14 18 13 43 -2 24 -17 27 -17 43 -1 15 15 15 17 -3 31 -11 8 -26 14 -34
14 -8 0 -12 6 -9 15 7 17 -1 23 -26 17z"/>
<path d="M1286 1693 c-17 -49 -16 -62 2 -41 11 14 27 88 19 88 -3 0 -12 -21
-21 -47z"/>
<path d="M1815 1879 c-80 -23 -146 -118 -148 -211 -1 -61 36 -141 78 -171 156
-110 359 -11 356 175 -1 124 -94 219 -210 217 -25 0 -59 -5 -76 -10z m142 -40
c86 -32 136 -147 102 -236 -13 -35 -55 -80 -94 -100 -37 -20 -124 -19 -161 0
-169 88 -110 345 78 347 26 0 59 -5 75 -11z"/>
<path d="M1863 1791 c-3 -12 -9 -21 -14 -21 -18 0 -49 -41 -49 -64 0 -29 29
-52 83 -67 28 -7 37 -15 35 -27 -5 -27 -53 -27 -77 -1 -20 22 -22 22 -38 6
-16 -15 -15 -18 1 -36 10 -11 27 -23 37 -26 11 -4 19 -13 19 -21 0 -8 9 -14
20 -14 11 0 20 6 20 13 0 8 11 19 25 25 35 16 51 55 37 87 -8 17 -26 28 -59
38 -50 15 -68 41 -34 50 11 2 29 -2 41 -10 16 -12 24 -12 35 -3 22 18 18 29
-12 43 -16 7 -28 19 -28 27 0 24 -36 25 -42 1z"/>
<path d="M2002 1706 c-7 -27 -11 -51 -8 -53 10 -10 27 40 24 70 -3 30 -4 29
-16 -17z"/>
<path d="M1582 1834 c-27 -18 -28 -45 -4 -67 24 -22 41 -21 58 1 19 24 17 46
-4 65 -23 21 -22 21 -50 1z m43 -34 c0 -8 -8 -16 -17 -18 -13 -2 -18 3 -18 18
0 15 5 20 18 18 9 -2 17 -10 17 -18z"/>
<path d="M2356 1805 c-4 -15 -9 -58 -11 -98 -11 -178 -33 -295 -75 -405 -11
-29 -20 -62 -20 -75 0 -20 1 -20 15 6 26 51 66 181 80 267 14 78 29 330 21
330 -2 0 -7 -11 -10 -25z"/>
<path d="M2186 1791 c-21 -23 -14 -56 14 -71 13 -7 24 -4 44 11 31 24 33 40 8
62 -24 22 -45 21 -66 -2z m51 -17 c8 -21 -13 -42 -28 -27 -13 13 -5 43 11 43
6 0 13 -7 17 -16z"/>
<path d="M2155 1578 c-15 -18 -34 -41 -42 -50 -13 -15 -10 -21 27 -62 24 -25
50 -46 58 -46 16 0 91 77 92 95 0 13 -82 95 -95 95 -7 0 -24 -15 -40 -32z m87
-52 c15 -6 28 -14 28 -18 0 -4 -6 -5 -14 -2 -17 7 -46 -22 -46 -46 0 -10 -4
-22 -10 -25 -5 -3 -10 3 -10 14 0 24 -36 65 -50 56 -5 -3 -11 -1 -15 5 -3 5 2
10 11 10 26 0 54 30 55 59 1 24 2 23 12 -8 7 -23 20 -38 39 -45z"/>
<path d="M1442 1551 c-103 -36 -172 -132 -172 -238 0 -116 77 -217 184 -243
120 -28 225 12 284 110 28 48 32 63 32 125 0 83 -21 135 -75 190 -68 68 -162
89 -253 56z m145 -33 c53 -13 116 -70 139 -124 29 -70 11 -178 -39 -232 -59
-64 -164 -87 -244 -52 -90 38 -136 109 -134 207 0 67 22 114 73 158 59 50 123
64 205 43z"/>
<path d="M1445 1461 c-62 -38 -95 -94 -95 -160 0 -46 40 -110 84 -136 101 -59
226 -8 256 105 19 72 -21 160 -91 195 -40 21 -118 19 -154 -4z m113 -33 c15
-15 16 -50 1 -65 -8 -8 4 -23 45 -53 33 -25 56 -50 56 -61 0 -25 -11 -24 -72
7 l-51 26 6 -51 c6 -49 5 -51 -18 -51 -23 0 -25 4 -25 45 0 25 -2 45 -5 45 -3
0 -23 -9 -45 -20 -49 -25 -60 -25 -60 0 0 12 19 34 50 57 35 26 48 42 44 53
-15 36 -15 48 1 64 19 19 56 21 73 4z m80 -50 c7 -7 12 -21 12 -32 0 -18 -1
-19 -20 -1 -20 18 -27 45 -12 45 4 0 13 -5 20 -12z"/>
<path d="M1894 1402 c-6 -4 -16 -17 -22 -28 -9 -18 -7 -25 13 -44 27 -25 59
-21 76 12 9 16 6 24 -12 44 -23 25 -36 29 -55 16z m44 -39 c5 -17 -26 -29 -40
-15 -6 6 -7 15 -3 22 9 14 37 9 43 -7z"/>
<path d="M2157 1342 c-22 -24 -21 -45 1 -65 25 -23 34 -21 62 8 l23 25 -23 25
c-28 30 -41 31 -63 7z m46 -18 c9 -10 -4 -34 -18 -34 -17 0 -28 17 -20 30 7
11 28 13 38 4z"/>
<path d="M1169 1311 c-20 -16 -22 -23 -14 -47 14 -39 56 -45 74 -10 26 48 -19
90 -60 57z m41 -31 c0 -11 -6 -20 -13 -20 -19 0 -27 10 -20 26 8 21 33 17 33
-6z"/>
<path d="M1937 1278 c-7 -13 -20 -36 -29 -53 -9 -17 -36 -41 -64 -55 -65 -33
-65 -56 0 -90 37 -20 55 -38 72 -72 13 -26 28 -49 33 -52 18 -11 40 6 55 44
15 39 58 80 82 80 8 0 23 9 35 21 26 26 13 44 -48 70 -32 14 -47 28 -60 56
-19 43 -42 73 -54 73 -5 0 -14 -10 -22 -22z m33 -22 c0 -65 42 -112 106 -122
52 -8 58 -24 9 -24 -19 0 -45 -5 -59 -11 -28 -13 -56 -64 -56 -103 0 -14 -4
-26 -10 -26 -5 0 -10 14 -10 30 0 39 -24 86 -50 100 -11 6 -36 11 -55 12 -41
1 -59 18 -20 18 38 0 90 25 109 51 9 13 16 40 16 61 0 21 5 38 10 38 6 0 10
-11 10 -24z"/>
<path d="M1076 1104 c-20 -19 -36 -40 -36 -45 0 -13 64 -79 77 -79 5 0 26 17
47 39 l37 38 -26 32 c-45 53 -58 55 -99 15z m56 -6 c2 -15 11 -24 26 -26 12
-2 22 -7 22 -12 0 -5 -10 -10 -22 -12 -15 -2 -24 -11 -26 -25 -2 -13 -7 -23
-12 -23 -5 0 -10 10 -12 23 -2 14 -11 23 -25 25 -13 2 -23 7 -23 12 0 5 10 10
23 12 14 2 23 11 25 26 2 12 7 22 12 22 5 0 10 -10 12 -22z"/>
<path d="M1295 1040 c-15 -17 -16 -24 -7 -45 17 -37 39 -41 68 -15 29 28 30
34 4 60 -25 25 -42 25 -65 0z m50 -30 c0 -8 -8 -16 -17 -18 -13 -2 -18 3 -18
18 0 15 5 20 18 18 9 -2 17 -10 17 -18z"/>
<path d="M1616 1028 c-13 -19 -14 -25 -2 -43 7 -11 24 -20 36 -20 12 0 29 9
36 20 12 18 11 24 -2 43 -8 12 -24 22 -34 22 -10 0 -26 -10 -34 -22z m52 -21
c2 -12 -3 -17 -17 -17 -12 0 -21 6 -21 13 0 31 32 34 38 4z"/>
<path d="M1456 931 c-19 -21 -15 -51 10 -72 19 -16 60 2 69 31 8 25 -19 60
-45 60 -9 0 -25 -9 -34 -19z m52 -28 c-5 -26 -38 -29 -38 -4 0 15 6 21 21 21
14 0 19 -5 17 -17z"/>
<path d="M2596 1776 c-10 -17 -12 -27 -5 -32 6 -3 14 -16 19 -28 7 -16 9 -8 9
32 1 28 -1 52 -3 52 -2 0 -11 -11 -20 -24z"/>
<path d="M750 907 c0 -29 161 -121 274 -156 98 -30 103 -25 11 13 -105 43
-160 71 -215 110 -66 47 -70 49 -70 33z"/>
<path d="M708 758 c20 -20 13 -32 -8 -13 -11 10 -20 14 -20 8 0 -19 92 -83
201 -138 116 -60 129 -63 129 -39 0 13 6 15 28 10 72 -15 164 -27 179 -23 10
2 1 7 -22 11 -145 27 -349 104 -439 165 -45 31 -70 41 -48 19z m266 -144 c23
-9 20 -21 -6 -20 -12 0 -23 7 -26 14 -4 13 7 15 32 6z"/>
<path d="M2261 725 c-214 -128 -573 -198 -876 -173 -60 5 -71 5 -45 -3 19 -5
115 -12 213 -16 97 -3 176 -7 175 -8 -8 -8 -108 -15 -222 -17 -190 -3 -120
-16 90 -17 254 -1 375 24 564 119 80 40 206 128 197 137 -3 3 -18 -4 -34 -14
-51 -36 -58 -35 -18 1 22 19 38 35 35 35 -3 0 -38 -20 -79 -44z"/>
<path d="M1430 320 c0 -28 2 -29 20 -18 11 7 20 21 20 30 0 11 -8 18 -20 18
-16 0 -20 -7 -20 -30z"/>
<path d="M1791 310 c-9 -28 -8 -30 15 -30 26 0 27 3 18 38 -9 30 -20 28 -33
-8z"/>
<path d="M727 2378 c-46 -65 -97 -150 -97 -161 0 -4 7 -4 15 -1 8 4 32 36 52
73 19 36 47 85 60 109 34 61 21 52 -30 -20z"/>
</g>
</svg>
